<svg width="680" height="680" xmlns="http://www.w3.org/2000/svg" xmlns:xlink="http://www.w3.org/1999/xlink" overflow="hidden"><g><rect x="0" y="0" width="680" height="680" fill="#FFFFFF"/><path d="M157.095 417.555 162.314 416.963 158.19 428.187C154.304 440.253 150.721 453.019 147.551 466.299 134.471 521.08 131.593 571.23 138.042 601.595L139.751 608.279 135.488 601.274C119.341 569.886 121.411 510.836 143.715 449.211 147.432 438.941 151.535 429.085 155.943 419.727Z" fill="#291D3F" fill-rule="evenodd"/><path d="M151.129 420.564 155.813 420.032 150.655 437.355C124.041 534.418 131.326 616.7 174.223 639.308 212.941 659.713 270.59 626.194 323.169 559.773L329.303 551.6 322.094 563.721C267.405 646.888 203.445 694.126 160.858 675.623 111.175 654.036 107.046 550.12 147.078 431.756ZM183.671 345.019 179.412 357.128 179.429 357.121 174.474 368.347 173.748 370.202 172.591 368.024 178.597 354.949Z" fill="#665790" fill-rule="evenodd"/><path d="M425.746 51.2978C434.951 50.6746 443.505 52.0998 451.24 55.7424 466.708 63.0274 477.43 78.4919 483.573 100.219L485.054 107.101 483.729 104.568C478.66 96.8951 472.36 90.9463 464.796 86.9574 404.291 55.0471 285.895 160.667 200.353 322.866 193.67 335.538 187.385 348.18 181.506 360.736L179.683 364.883 170.807 365.89 175.18 354.608C181.455 339.082 188.31 323.381 195.738 307.608 265.07 160.397 361.317 55.6601 425.746 51.2978Z" fill="#291D3F" fill-rule="evenodd"/><path d="M435.524 0.85331C444.71-0.665611 453.16 0.148796 460.696 3.49936 487.071 15.2264 497.879 56.0787 494.471 114.57L492.327 138.63 491.676 132.346C486.527 99.0105 473.873 75.6469 453.368 66.314 387.752 36.4487 266.592 161.568 182.749 345.776L172.805 368.711 171.024 365.356 179.981 342.33C184.857 330.358 189.993 318.294 195.383 306.171 270.846 136.451 371.223 11.4856 435.524 0.85331Z" fill="#B93344" fill-rule="evenodd"/><path d="M98 419 185.624 419" stroke="#FFFFFF" stroke-width="8" stroke-miterlimit="8" fill="none" fill-rule="evenodd"/><path d="M170 295 220.78 428.923" stroke="#FFFFFF" stroke-width="8" stroke-miterlimit="8" fill="none" fill-rule="evenodd"/><path d="M127.467 299 167.66 299 221 440 181.747 440 172.544 415.499 121.833 415.499 112.066 440 73 440 127.467 299ZM147.188 342.579 131.975 387.467 162.589 387.467 147.564 342.579 147.188 342.579Z" fill-rule="evenodd"/><path d="M202.053 299 238.643 299 238.643 372.871C238.514 379.083 238.918 385.081 239.855 390.865 240.791 396.649 243.036 401.42 246.59 405.179 250.143 408.937 255.78 410.883 263.5 411.016 271.221 410.883 276.857 408.937 280.411 405.179 283.964 401.42 286.209 396.649 287.146 390.865 288.082 385.081 288.486 379.083 288.357 372.871L288.357 299 324.947 299 324.947 377.895C325.208 387.005 324.5 395.812 322.824 404.315 321.148 412.819 316.939 420.506 310.199 427.378 304.136 433.073 296.938 437.117 288.607 439.511 280.275 441.905 271.906 443.067 263.5 442.997 255.094 443.067 246.725 441.905 238.393 439.511 230.062 437.117 222.864 433.073 216.801 427.378 210.061 420.506 205.852 412.819 204.176 404.315 202.5 395.812 201.792 387.005 202.053 377.895L202.053 299Z" stroke="#FFFFFF" stroke-width="16" stroke-miterlimit="8" fill-rule="evenodd"/><path d="M202.053 299 238.941 299 238.941 372.871C238.811 379.083 239.218 385.081 240.162 390.865 241.107 396.649 243.37 401.42 246.952 405.179 250.534 408.937 256.217 410.883 264 411.016 271.783 410.883 277.466 408.937 281.048 405.179 284.63 401.42 286.893 396.649 287.838 390.865 288.782 385.081 289.189 379.083 289.059 372.871L289.059 299 325.947 299 325.947 377.895C326.21 387.005 325.496 395.811 323.806 404.315 322.116 412.819 317.874 420.506 311.079 427.378 304.966 433.073 297.71 437.117 289.311 439.511 280.912 441.905 272.475 443.067 264 442.997 255.526 443.067 247.089 441.905 238.689 439.511 230.29 437.117 223.034 433.073 216.921 427.378 210.126 420.506 205.884 412.819 204.194 404.315 202.504 395.811 201.79 387.005 202.053 377.895L202.053 299Z" stroke="#FFFFFF" stroke-width="2" stroke-miterlimit="8" fill-rule="evenodd"/><path d="M366.144 295C373.413 295.039 380.969 296.079 388.814 298.12 396.658 300.162 403.79 302.971 410.209 306.55L395.651 334.874C392.261 332.038 388.497 329.785 384.359 328.115 380.221 326.444 375.894 325.589 371.378 325.551 367.78 325.551 364.321 326.53 361.003 328.487 357.685 330.445 355.909 333.382 355.675 337.298 355.956 341.319 357.872 344.326 361.424 346.319 364.976 348.312 368.481 349.781 371.939 350.725L381.281 353.522C391.301 356.23 399.536 360.511 405.986 366.365 412.437 372.22 415.773 380.744 415.994 391.936 416.088 399.038 415.061 405.905 412.915 412.537 410.769 419.169 406.943 424.914 401.437 429.773 395.842 434.399 389.581 437.768 382.652 439.879 375.724 441.99 368.663 443.03 361.471 442.999 352.546 442.961 343.881 441.548 335.473 438.761 327.066 435.975 319.241 432.047 312 426.979L327.681 397.531C332.253 401.645 337.246 405.071 342.659 407.81 348.072 410.549 353.906 411.971 360.162 412.076 364.664 412.103 368.699 410.977 372.266 408.696 375.834 406.416 377.719 402.818 377.921 397.904 377.792 394.518 376.451 391.779 373.899 389.685 371.346 387.591 368.357 385.943 364.932 384.74 361.507 383.537 358.422 382.579 355.675 381.866 347.978 379.826 341.287 377.443 335.602 374.718 329.917 371.994 325.507 368.119 322.372 363.094 319.237 358.07 317.647 351.087 317.602 342.147 317.862 327.706 322.428 316.283 331.299 307.879 340.169 299.475 351.785 295.182 366.144 295Z" stroke="#FFFFFF" stroke-width="16" stroke-miterlimit="8" fill-rule="evenodd"/><path d="M366.144 295C373.413 295.039 380.969 296.079 388.814 298.12 396.658 300.162 403.79 302.971 410.209 306.55L395.651 334.874C392.261 332.038 388.497 329.785 384.359 328.115 380.221 326.444 375.894 325.589 371.378 325.551 367.78 325.551 364.321 326.53 361.003 328.487 357.685 330.445 355.909 333.382 355.675 337.298 355.956 341.319 357.872 344.326 361.424 346.319 364.976 348.312 368.481 349.781 371.939 350.725L381.281 353.522C391.301 356.23 399.536 360.511 405.986 366.366 412.437 372.22 415.773 380.744 415.994 391.936 416.088 399.038 415.061 405.905 412.915 412.537 410.769 419.169 406.943 424.914 401.437 429.773 395.842 434.399 389.581 437.768 382.652 439.879 375.724 441.99 368.663 443.03 361.471 442.999 352.546 442.961 343.881 441.548 335.473 438.761 327.066 435.975 319.241 432.047 312 426.979L327.681 397.531C332.253 401.645 337.246 405.071 342.659 407.81 348.072 410.549 353.906 411.971 360.162 412.076 364.664 412.103 368.699 410.977 372.266 408.696 375.834 406.416 377.719 402.818 377.921 397.904 377.792 394.518 376.451 391.779 373.899 389.685 371.346 387.591 368.357 385.943 364.932 384.74 361.507 383.537 358.422 382.579 355.675 381.866 347.978 379.826 341.287 377.443 335.602 374.718 329.917 371.994 325.507 368.119 322.372 363.094 319.237 358.07 317.647 351.087 317.602 342.147 317.862 327.706 322.428 316.283 331.299 307.879 340.169 299.475 351.785 295.182 366.144 295Z" stroke="#FFFFFF" stroke-width="2" stroke-miterlimit="8" fill-rule="evenodd"/><path d="M460.144 295C467.413 295.039 474.969 296.079 482.814 298.12 490.658 300.162 497.79 302.971 504.209 306.55L489.651 334.874C486.261 332.038 482.497 329.785 478.359 328.115 474.221 326.444 469.894 325.589 465.378 325.551 461.78 325.551 458.321 326.53 455.003 328.487 451.685 330.445 449.909 333.382 449.675 337.298 449.956 341.319 451.872 344.326 455.424 346.319 458.976 348.312 462.481 349.781 465.939 350.725L475.281 353.522C485.3 356.23 493.536 360.511 499.986 366.365 506.437 372.22 509.773 380.744 509.994 391.936 510.088 399.038 509.061 405.905 506.915 412.537 504.769 419.169 500.943 424.914 495.437 429.773 489.842 434.399 483.581 437.768 476.652 439.879 469.724 441.99 462.663 443.03 455.47 442.999 446.547 442.961 437.881 441.548 429.473 438.761 421.066 435.975 413.241 432.047 406 426.979L421.681 397.531C426.253 401.645 431.246 405.071 436.659 407.81 442.072 410.549 447.906 411.971 454.162 412.076 458.664 412.103 462.699 410.977 466.266 408.696 469.834 406.416 471.719 402.818 471.921 397.904 471.792 394.518 470.451 391.779 467.899 389.685 465.346 387.591 462.357 385.943 458.932 384.74 455.507 383.537 452.422 382.579 449.675 381.866 441.978 379.826 435.287 377.443 429.602 374.718 423.917 371.994 419.507 368.119 416.372 363.094 413.237 358.07 411.647 351.087 411.602 342.147 411.862 327.706 416.428 316.283 425.299 307.879 434.169 299.475 445.784 295.182 460.144 295Z" stroke="#FFFFFF" stroke-width="16" stroke-miterlimit="8" fill-rule="evenodd"/><path d="M460.144 295C467.413 295.039 474.969 296.079 482.814 298.12 490.658 300.162 497.79 302.971 504.209 306.55L489.651 334.874C486.261 332.038 482.497 329.785 478.359 328.115 474.221 326.444 469.894 325.589 465.378 325.551 461.78 325.551 458.321 326.53 455.003 328.487 451.685 330.445 449.909 333.382 449.675 337.298 449.956 341.319 451.872 344.326 455.424 346.319 458.976 348.312 462.481 349.781 465.939 350.725L475.281 353.522C485.3 356.23 493.536 360.511 499.986 366.366 506.437 372.22 509.773 380.744 509.994 391.936 510.088 399.038 509.061 405.905 506.915 412.537 504.769 419.169 500.943 424.914 495.437 429.773 489.842 434.399 483.581 437.768 476.652 439.879 469.724 441.99 462.663 443.03 455.47 442.999 446.547 442.961 437.881 441.548 429.473 438.761 421.066 435.975 413.241 432.047 406 426.979L421.681 397.531C426.253 401.645 431.246 405.071 436.659 407.81 442.072 410.549 447.906 411.971 454.162 412.076 458.664 412.103 462.699 410.977 466.266 408.696 469.834 406.416 471.719 402.818 471.921 397.904 471.792 394.518 470.451 391.779 467.899 389.685 465.346 387.591 462.357 385.943 458.932 384.74 455.507 383.537 452.422 382.579 449.675 381.866 441.978 379.826 435.287 377.443 429.602 374.718 423.917 371.994 419.507 368.119 416.372 363.094 413.237 358.07 411.647 351.087 411.602 342.147 411.862 327.706 416.428 316.283 425.299 307.879 434.169 299.475 445.784 295.182 460.144 295Z" stroke="#FFFFFF" stroke-width="2" stroke-miterlimit="8" fill-rule="evenodd"/><path d="M504 255C504 247.268 510.492 241 518.5 241 526.508 241 533 247.268 533 255 533 262.732 526.508 269 518.5 269 510.492 269 504 262.732 504 255Z" fill="#291D3F" fill-rule="evenodd"/><path d="M554 195C554 188.373 559.373 183 566 183 572.627 183 578 188.373 578 195 578 201.627 572.627 207 566 207 559.373 207 554 201.627 554 195Z" fill="#291D3F" fill-rule="evenodd"/><path d="M558 231.5C558 225.701 562.701 221 568.5 221 574.299 221 579 225.701 579 231.5 579 237.299 574.299 242 568.5 242 562.701 242 558 237.299 558 231.5Z" fill="#291D3F" fill-rule="evenodd"/><path d="M499 199C499 189.611 506.611 182 516 182 525.389 182 533 189.611 533 199 533 208.389 525.389 216 516 216 506.611 216 499 208.389 499 199Z" fill="#291D3F" fill-rule="evenodd"/><path d="M573 272C573 262.611 580.611 255 590 255 599.389 255 607 262.611 607 272 607 281.389 599.389 289 590 289 580.611 289 573 281.389 573 272Z" fill="#291D3F" fill-rule="evenodd"/><path d="M185.505 594.094C183.769 586.26 188.712 578.501 196.547 576.765 204.381 575.029 212.14 579.972 213.876 587.806 215.612 595.641 210.669 603.399 202.835 605.136 195 606.872 187.242 601.929 185.505 594.094Z" fill="#291D3F" fill-rule="evenodd"/><path d="M245.054 524.397C243.754 518.53 247.456 512.719 253.324 511.418 259.192 510.118 265.003 513.82 266.303 519.688 267.604 525.556 263.901 531.367 258.033 532.667 252.166 533.968 246.355 530.265 245.054 524.397Z" fill="#291D3F" fill-rule="evenodd"/></g></svg>